/* XPM */
static char * D:\work\wn8\wn8_node\share\pixmaps\bitcoin64_xpm[] = {
"64 64 701 2",
"  	c None",
". 	c #279FEA",
"+ 	c #2B94E5",
"@ 	c #2E89E2",
"# 	c #20B0EF",
"$ 	c #23A7EC",
"% 	c #2899E7",
"& 	c #2A93E6",
"* 	c #2C8DE4",
"= 	c #2E87E2",
"- 	c #3081E0",
"; 	c #327CE0",
"> 	c #3577DD",
", 	c #23ABEB",
"' 	c #22ABED",
") 	c #24A5EB",
"! 	c #269FE9",
"~ 	c #289AE8",
"{ 	c #2A93E5",
"] 	c #2D88E2",
"^ 	c #3081E1",
"/ 	c #327CDF",
"( 	c #3476DE",
"_ 	c #366FDB",
": 	c #386ADA",
"< 	c #25A2EA",
"[ 	c #1EB4EE",
"} 	c #20B1EE",
"| 	c #22ABEC",
"1 	c #24A5EA",
"2 	c #2C8EE4",
"3 	c #3082E0",
"4 	c #3475DE",
"5 	c #3670DC",
"6 	c #3A64D9",
"7 	c #3B5FD7",
"8 	c #3F5AD7",
"9 	c #3084E2",
"0 	c #1FB1EE",
"a 	c #19C3F3",
"b 	c #1CBCF1",
"c 	c #1EB7EF",
"d 	c #25A0E9",
"e 	c #3375DD",
"f 	c #3670DB",
"g 	c #3A64D8",
"h 	c #3C5ED6",
"i 	c #3E58D5",
"j 	c #4052D3",
"k 	c #414DD2",
"l 	c #4250D1",
"m 	c #2A95E6",
"n 	c #17CCF6",
"o 	c #16CEF6",
"p 	c #18C8F4",
"q 	c #1AC3F3",
"r 	c #1EB6EF",
"s 	c #20B0EE",
"t 	c #2E88E3",
"u 	c #337CDF",
"v 	c #3C5ED7",
"w 	c #424DD2",
"x 	c #4547D0",
"y 	c #4641CF",
"z 	c #483CCD",
"A 	c #1BC0F2",
"B 	c #10DFFB",
"C 	c #12DAF9",
"D 	c #14D4F8",
"E 	c #18C9F5",
"F 	c #1AC2F3",
"G 	c #2C8EE5",
"H 	c #3476DD",
"I 	c #3E58D6",
"J 	c #4053D3",
"K 	c #434DD2",
"L 	c #4446D1",
"M 	c #483ACC",
"N 	c #4A35CB",
"O 	c #4D30CA",
"P 	c #20B0ED",
"Q 	c #0EE6FD",
"R 	c #10E0FC",
"S 	c #12D9F9",
"T 	c #1CBDF2",
"U 	c #22ACED",
"V 	c #269FE8",
"W 	c #2C8DE3",
"X 	c #2E88E2",
"Y 	c #3082E1",
"Z 	c #327BDF",
"` 	c #3769DA",
" .	c #3D5FD7",
"..	c #4052D4",
"+.	c #424DD1",
"@.	c #4447D0",
"#.	c #483BCD",
"$.	c #4D2FC9",
"%.	c #4D29C9",
"&.	c #5023C7",
"*.	c #19C5F4",
"=.	c #0EE5FC",
"-.	c #12DAFA",
";.	c #15CDF5",
">.	c #1AC2F2",
",.	c #1DB7F0",
"'.	c #20B2EF",
").	c #259FE9",
"!.	c #3B65D9",
"~.	c #4641CE",
"{.	c #473ACD",
"].	c #4B35CB",
"^.	c #4E2AC9",
"/.	c #5023C6",
"(.	c #521DC4",
"_.	c #24A7EB",
":.	c #10E0FB",
"<.	c #386ADB",
"[.	c #3B5ED6",
"}.	c #4447D1",
"|.	c #493BCD",
"1.	c #4A35CC",
"2.	c #4C2FCA",
"3.	c #4E2AC8",
"4.	c #0DE5FC",
"5.	c #18C8F5",
"6.	c #24A6EB",
"7.	c #269EE8",
"8.	c #2A94E6",
"9.	c #3C5FD7",
"0.	c #424CD1",
"a.	c #4446D0",
"b.	c #521EC5",
"c.	c #13D4F7",
"d.	c #15CEF6",
"e.	c #1CBDF1",
"f.	c #2D8EE4",
"g.	c #2F88E3",
"h.	c #3475DD",
"i.	c #3E59D5",
"j.	c #483BCC",
"k.	c #4D29C8",
"l.	c #5024C6",
"m.	c #521EC4",
"n.	c #106DD1",
"o.	c #1169CC",
"p.	c #3279DF",
"q.	c #3378DF",
"r.	c #17C8F4",
"s.	c #1EB7F0",
"t.	c #4C2FC9",
"u.	c #2A92E6",
"v.	c #2C8CE4",
"w.	c #20AFED",
"x.	c #0E73D4",
"y.	c #106ED1",
"z.	c #126ACD",
"A.	c #1365C8",
"B.	c #1560C4",
"C.	c #4052D5",
"D.	c #17CBF5",
"E.	c #22AAED",
"F.	c #1BBCF1",
"G.	c #317BDF",
"H.	c #3E58D4",
"I.	c #4741CF",
"J.	c #4D2AC8",
"K.	c #2E8BE3",
"L.	c #2A92E5",
"M.	c #327ADE",
"N.	c #3575DD",
"O.	c #0E72D6",
"P.	c #1169CD",
"Q.	c #1660C5",
"R.	c #165BC2",
"S.	c #19C6F4",
"T.	c #15D0F7",
"U.	c #18C7F4",
"V.	c #1BBFF2",
"W.	c #22AAEC",
"X.	c #3869DA",
"Y.	c #424CD2",
"Z.	c #4640CE",
"`.	c #4A34CB",
" +	c #4B30CA",
".+	c #3081DF",
"++	c #279CE8",
"@+	c #2A94E5",
"#+	c #2F87E3",
"$+	c #327ADF",
"%+	c #366DDB",
"&+	c #3081E2",
"*+	c #0D77D8",
"=+	c #0E73D5",
"-+	c #1560C5",
";+	c #175CC1",
">+	c #1A58BD",
",+	c #3868DB",
"'+	c #1BC0F3",
")+	c #19C8F4",
"!+	c #1CBEF2",
"~+	c #1EB5EF",
"{+	c #22ADEE",
"]+	c #269FEA",
"^+	c #3963D7",
"/+	c #4835CC",
"(+	c #3477DD",
"_+	c #23A6EB",
":+	c #26A1E9",
"<+	c #2994E6",
"[+	c #2F87E2",
"}+	c #366EDB",
"|+	c #0C77D9",
"1+	c #0E72D4",
"2+	c #106FD1",
"3+	c #1269CD",
"4+	c #1365C9",
"5+	c #175CC0",
"6+	c #1957BC",
"7+	c #1A52B8",
"8+	c #3672DD",
"9+	c #1DBAF0",
"0+	c #1BBEF2",
"a+	c #21ACED",
"b+	c #25A2E9",
"c+	c #2B90E5",
"d+	c #2B8EE5",
"e+	c #3964D8",
"f+	c #3870DB",
"g+	c #21ADED",
"h+	c #21ADEC",
"i+	c #26A0E9",
"j+	c #376EDB",
"k+	c #3B61D7",
"l+	c #3E56D5",
"m+	c #1169CE",
"n+	c #1957BE",
"o+	c #1B53B9",
"p+	c #1B4DB5",
"q+	c #327EDF",
"r+	c #1FB4EF",
"s+	c #1FB5EF",
"t+	c #24A3EA",
"u+	c #2B91E5",
"v+	c #317EE0",
"w+	c #3375DE",
"x+	c #366FDC",
"y+	c #4053D4",
"z+	c #4542CF",
"A+	c #3A66D9",
"B+	c #366DDA",
"C+	c #3F55D4",
"D+	c #0B7DDE",
"E+	c #0D78D9",
"F+	c #0F73D5",
"G+	c #106ED0",
"H+	c #1661C5",
"I+	c #1957BD",
"J+	c #1A53B9",
"K+	c #1C4EB5",
"L+	c #1E4AB2",
"M+	c #2C86E3",
"N+	c #21AEED",
"O+	c #21ABEC",
"P+	c #2B90E4",
"Q+	c #317DDF",
"R+	c #3474DD",
"S+	c #386DDB",
"T+	c #3B63D8",
"U+	c #4153D4",
"V+	c #4548D2",
"W+	c #3E5CD5",
"X+	c #1DB9F0",
"Y+	c #25A1E9",
"Z+	c #4055D4",
"`+	c #0A7CDD",
" @	c #0D77D9",
".@	c #1C4DB5",
"+@	c #1E49B0",
"@@	c #2045AC",
"#@	c #23A9EC",
"$@	c #317DE0",
"%@	c #376BDB",
"&@	c #3B62D8",
"*@	c #3E59D6",
"=@	c #4150D3",
"-@	c #15D3F8",
";@	c #18C6F3",
">@	c #25A1EA",
",@	c #4349D0",
"'@	c #0980E0",
")@	c #0A7BDD",
"!@	c #165BC0",
"~@	c #1E49B1",
"{@	c #2044AD",
"]@	c #2240A8",
"^@	c #24A2E9",
"/@	c #2B91E6",
"(@	c #376BDA",
"_@	c #4346D0",
":@	c #473ECE",
"<@	c #4935CB",
"[@	c #3573DC",
"}@	c #14D2F7",
"|@	c #1CBAF0",
"1@	c #337BDF",
"2@	c #376DDB",
"3@	c #3F54D4",
"4@	c #4448D0",
"5@	c #0880E0",
"6@	c #0C77DA",
"7@	c #0E72D5",
"8@	c #233BA5",
"9@	c #22A7ED",
"0@	c #386BDA",
"a@	c #3A62D9",
"b@	c #4E2CC8",
"c@	c #2D8CE5",
"d@	c #15D3F7",
"e@	c #19C7F4",
"f@	c #1CBAF1",
"g@	c #3B61D8",
"h@	c #473ECD",
"i@	c #0685E5",
"j@	c #1269CC",
"k@	c #1364C9",
"l@	c #1C4EB4",
"m@	c #2045AD",
"n@	c #2240A9",
"o@	c #233CA5",
"p@	c #2538A0",
"q@	c #20B3EF",
"r@	c #2996E7",
"s@	c #3474DE",
"t@	c #386CDA",
"u@	c #4150D2",
"v@	c #473DCD",
"w@	c #4D2BC8",
"x@	c #5122C6",
"y@	c #521AC5",
"z@	c #18C6F4",
"A@	c #22ADED",
"B@	c #4348D1",
"C@	c #473CCD",
"D@	c #0785E5",
"E@	c #0980E1",
"F@	c #0A7BDC",
"G@	c #0C76D9",
"H@	c #1A52B9",
"I@	c #243CA4",
"J@	c #2536A0",
"K@	c #273CA3",
"L@	c #2A91E6",
"M@	c #404FD3",
"N@	c #4A34CA",
"O@	c #4E2BC8",
"P@	c #531BC5",
"Q@	c #2897E7",
"R@	c #1EB8F0",
"S@	c #1CB9F0",
"T@	c #0784E4",
"U@	c #0981E1",
"V@	c #0D72D5",
"W@	c #1364C8",
"X@	c #1B52B8",
"Y@	c #2241A9",
"Z@	c #243CA5",
"`@	c #2638A1",
" #	c #27339D",
".#	c #2952B3",
"+#	c #2F83E1",
"@#	c #5022C6",
"##	c #24A4EB",
"$#	c #21AEEE",
"%#	c #2D86E3",
"&#	c #473BCD",
"*#	c #4C30CA",
"=#	c #0789E8",
"-#	c #0B7CDD",
";#	c #1857BD",
">#	c #1B52B9",
",#	c #27329C",
"'#	c #292E9A",
")#	c #275BB8",
"!#	c #483ECE",
"~#	c #4D2BC9",
"{#	c #5022C5",
"]#	c #1DBDF1",
"^#	c #1FB3EE",
"/#	c #289BE8",
"(#	c #2993E6",
"_#	c #2D8CE2",
":#	c #2A94E7",
"<#	c #4348D0",
"[#	c #4D2FCA",
"}#	c #0589E9",
"|#	c #1B53B8",
"1#	c #1E4AB1",
"2#	c #2537A1",
"3#	c #27339C",
"4#	c #292E99",
"5#	c #2B2A95",
"6#	c #275EB5",
"7#	c #473DCE",
"8#	c #4A34CC",
"9#	c #4D2DC8",
"0#	c #1BC4F3",
"a#	c #1CBBF1",
"b#	c #25A4EA",
"c#	c #279BE8",
"d#	c #2D8AE3",
"e#	c #337CE0",
"f#	c #376EDA",
"g#	c #4449D1",
"h#	c #058FED",
"i#	c #048AE9",
"j#	c #0684E4",
"k#	c #1465C9",
"l#	c #1F4AB1",
"m#	c #27329D",
"n#	c #2A2995",
"o#	c #2D2590",
"p#	c #2666B9",
"q#	c #3A61D8",
"r#	c #19C4F4",
"s#	c #1CBCF2",
"t#	c #1FB3EF",
"u#	c #25A3EA",
"v#	c #279AE8",
"w#	c #2D8BE4",
"x#	c #3083E1",
"y#	c #3572DC",
"z#	c #038EED",
"A#	c #0684E5",
"B#	c #0880E1",
"C#	c #243BA4",
"D#	c #28339D",
"E#	c #2B2A94",
"F#	c #2D2591",
"G#	c #2E208C",
"H#	c #2568B9",
"I#	c #3E5AD5",
"J#	c #453FCD",
"K#	c #3473DD",
"L#	c #17CCF5",
"M#	c #1AC4F3",
"N#	c #1CBBF0",
"O#	c #2D8BE3",
"P#	c #2F82E1",
"Q#	c #3572DD",
"R#	c #3D59D5",
"S#	c #3F53D4",
"T#	c #4D2EC9",
"U#	c #106ED2",
"V#	c #116ACD",
"W#	c #1A53B8",
"X#	c #1D4EB5",
"Y#	c #1E4AB0",
"Z#	c #233BA4",
"`#	c #2B2995",
" $	c #2C2591",
".$	c #2F218D",
"+$	c #311C89",
"@$	c #236AB7",
"#$	c #3A64D7",
"$$	c #17CAF5",
"%$	c #16CCF6",
"&$	c #1FB4F0",
"*$	c #3D5AD5",
"=$	c #434AD2",
"-$	c #4643D0",
";$	c #0192F0",
">$	c #2537A0",
",$	c #2A2F99",
"'$	c #2B2994",
")$	c #311C88",
"!$	c #321784",
"~$	c #207DBF",
"{$	c #4056D3",
"]$	c #11DCFA",
"^$	c #2C8BE4",
"/$	c #3E5AD6",
"($	c #4249D1",
"_$	c #493ACC",
":$	c #4C32CA",
"<$	c #4F2BC8",
"[$	c #0193F1",
"}$	c #058AE9",
"|$	c #1856BD",
"1$	c #2637A0",
"2$	c #292D99",
"3$	c #2C2590",
"4$	c #2E208D",
"5$	c #301C88",
"6$	c #301F89",
"7$	c #317CE0",
"8$	c #0FE4FC",
"9$	c #11DCFB",
"0$	c #19C4F3",
"a$	c #3A62D8",
"b$	c #434AD1",
"c$	c #4541CF",
"d$	c #4E29C9",
"e$	c #5121C6",
"f$	c #0880E2",
"g$	c #1561C5",
"h$	c #292E98",
"i$	c #2F2E91",
"j$	c #2F85E1",
"k$	c #0EE4FC",
"l$	c #14D4F7",
"m$	c #16CCF5",
"n$	c #2C8BE3",
"o$	c #376ADA",
"p$	c #4051D3",
"q$	c #4642CF",
"r$	c #493ACD",
"s$	c #4B31CB",
"t$	c #4F2AC8",
"u$	c #5021C6",
"v$	c #0191F0",
"w$	c #028EED",
"x$	c #1F49B0",
"y$	c #292F99",
"z$	c #301C89",
"A$	c #217EBF",
"B$	c #16CDF6",
"C$	c #13D3F7",
"D$	c #2992E5",
"E$	c #2C8AE3",
"F$	c #396BDB",
"G$	c #4839CD",
"H$	c #4B32CA",
"I$	c #4C2AC9",
"J$	c #038FEE",
"K$	c #1956BC",
"L$	c #236BB7",
"M$	c #18CAF5",
"N$	c #1EB4EF",
"O$	c #396BDA",
"P$	c #3D5AD6",
"Q$	c #4051D4",
"R$	c #4543CF",
"S$	c #028DED",
"T$	c #0A7BDE",
"U$	c #0C77D8",
"V$	c #246AB8",
"W$	c #3F5AD5",
"X$	c #473FCD",
"Y$	c #16CBF5",
"Z$	c #1DBCF1",
"`$	c #22ACEC",
" %	c #279BE7",
".%	c #2B94E6",
"+%	c #4054D2",
"@%	c #483ACB",
"#%	c #048DED",
"$%	c #2567B9",
"%%	c #3A63D8",
"&%	c #2E82E1",
"*%	c #1BC1F3",
"=%	c #4448D1",
"-%	c #483BCE",
";%	c #0784E5",
">%	c #2663B9",
",%	c #376CDB",
"'%	c #4B2BC8",
")%	c #2893E7",
"!%	c #317CDF",
"~%	c #3279DD",
"{%	c #0588E8",
"]%	c #126ACE",
"^%	c #175BC1",
"/%	c #233CA4",
"(%	c #2663BB",
"_%	c #3D59D6",
":%	c #24A3EB",
"<%	c #1EB9F0",
"[%	c #2C8DE5",
"}%	c #2992E6",
"|%	c #2E87E3",
"1%	c #4347D0",
"2%	c #0785E4",
"3%	c #185DC1",
"4%	c #275FBC",
"5%	c #21ACEE",
"6%	c #4B2FCA",
"7%	c #1D4EB4",
"8%	c #1F4AB0",
"9%	c #2140A8",
"0%	c #285DBD",
"a%	c #521BC6",
"b%	c #16D1F5",
"c%	c #1AC6F4",
"d%	c #0884E5",
"e%	c #0B7BDD",
"f%	c #285BBE",
"g%	c #317EDF",
"h%	c #414FD3",
"i%	c #14D3F7",
"j%	c #1EBAF1",
"k%	c #1857BC",
"l%	c #2958BE",
"m%	c #279AE7",
"n%	c #5024C8",
"o%	c #2B94E7",
"p%	c #1DBAF1",
"q%	c #2D86E2",
"r%	c #175CC2",
"s%	c #2A56BF",
"t%	c #4834CB",
"u%	c #4058D7",
"v%	c #269FEB",
"w%	c #15D4F8",
"x%	c #175BC0",
"y%	c #2A52C0",
"z%	c #4050D3",
"A%	c #19C6F3",
"B%	c #337BDE",
"C%	c #434BD0",
"D%	c #0B7DDD",
"E%	c #185CC1",
"F%	c #2C50C0",
"G%	c #1EB5F0",
"H%	c #2799E8",
"I%	c #2E86E2",
"J%	c #3B64D8",
"K%	c #3576DF",
"L%	c #3670DD",
"M%	c #0A7ADB",
"N%	c #126ACC",
"O%	c #2B4EC0",
"P%	c #2A90E5",
"Q%	c #317FE0",
"R%	c #3964D9",
"S%	c #3868D9",
"T%	c #3F56D4",
"U%	c #2B4CC1",
"V%	c #19C1F2",
"W%	c #1CBEF1",
"X%	c #2799E6",
"Y%	c #2A91E5",
"Z%	c #4640CF",
"`%	c #21AFED",
" &	c #0C76D8",
".&	c #2C4BC3",
"+&	c #366ED9",
"@&	c #1BBEF1",
"#&	c #1EB1EF",
"$&	c #4A35CA",
"%&	c #2450C3",
"&&	c #3C62D7",
"*&	c #16D1F7",
"=&	c #1AC3F2",
"-&	c #26A1EB",
";&	c #2F88E2",
">&	c #4446CF",
",&	c #269EE9",
"'&	c #0D71D4",
")&	c #4054D3",
"!&	c #2E86E3",
"~&	c #1BBBF1",
"{&	c #327BDE",
"]&	c #483ACD",
"^&	c #2A95E7",
"/&	c #2995E6",
"(&	c #106FD2",
"_&	c #1264C9",
":&	c #2A96E6",
"<&	c #2B8EE4",
"[&	c #16CFF7",
"}&	c #1CBCF0",
"|&	c #0DE4FC",
"1&	c #14D5F8",
"2&	c #17C8F5",
"3&	c #4B36CC",
"4&	c #4E29C8",
"5&	c #5218C3",
"6&	c #3576DE",
"7&	c #2997E7",
"8&	c #10DFFA",
"9&	c #4F23C7",
"0&	c #289AE7",
"a&	c #4B2FC9",
"b&	c #4348D2",
"c&	c #1BBFF1",
"d&	c #3963D8",
"e&	c #414CD1",
"f&	c #3967DA",
"g&	c #3375DC",
"h&	c #414CD2",
"i&	c #3868DA",
"j&	c #269DE9",
"k&	c #20B1EF",
"l&	c #26A0EA",
"m&	c #3C58D5",
"n&	c #2899E8",
"o&	c #386BDB",
"p&	c #23A4EB",
"q&	c #3377DD",
"r&	c #279EE8",
"                                                              . + @                                                             ",
"                                                        # $ % & * = - ; >                                                       ",
"                                                    , ' ) ! ~ { * ] ^ / ( _ :                                                   ",
"                                              @ < [ } | 1 ! % & 2 = 3 / 4 5 : 6 7 8                                             ",
"                                          9 0 a b c } | ) d ~ & 2 = ^ / e f : g h i j k                                         ",
"                                    l m n o p q b r s ' ) ! % & 2 t ^ u ( 5 : 6 v i j w x y z                                   ",
"                                  A B C D o E F b r } | ) ! ~ { G ] 3 / H f : g v I J K L y M N O                               ",
"                                P Q R S D o p q T r } U ) V % & W X Y Z H 5 ` g  .i ..+.@.y #.N $.%.&.                          ",
"                                *.=.R -.D ;.p >.b ,.'.' ) ).~ { 2 = - / H 5 : !.v i ..w L ~.{.].$.^./.(.                        ",
"                                _.=.:.C D o p q b c P | ) ! % { W t ^ / H 5 <.6 [.i j w }.y |.1.2.3./.(.                        ",
"                                  4.:.-.D o 5.>.b r s | 6.7.~ 8.* = ^ / H f <.g 9.i ..0.a.~.M 1.$.%.&.b.                        ",
"                                      C c.d.p >.e.,.} | ) ! % & f.g.- / h.f : g v i.j 0.@.~.j.1.2.k.l.m.                        ",
"                  n.o.        p.q.          r.q b s.} ' 1 ! ~ { 2 = Y Z h.f : g v i j 0.@.y #.1.t.k.&.      u.v.w.              ",
"                x.y.z.A.B.    C.D.p E.          F.r } U 1 ! % 8.G = Y G.4 f <.g v H.j 0.a.I.#.N $.J.    K.L.= M.N.              ",
"                O.y.P.A.Q.R.    v S.T.U.V.            W.1 V % { * X 3 Z H _ X.g v I j Y.@.Z.#.`. +    .+++@+#+$+%+&+            ",
"              *+=+y.P.A.-+;+>+    ,+'+)+!+~+{+            ]+~ { 2 X ^ Z 4 f : ^+ .I ..w }.~.#./+    (+_+:+<+[+$+}+:             ",
"              |+1+2+3+4+B.5+6+7+    8+9+0+~+a+b+% c+            d+] - / H 5 : e+v I ..+.@.y #.    f+g+h+i+8.= M.j+k+l+          ",
"              |+x.n.m+4+-+;+n+o+p+    q+r+s+U t+% u+t v+            &+/ w+x+: g v i y+Y.@.z+    A+,.9+h+d @+= M.B+k+C+          ",
"            D+E+F+G+z.A.H+5+I+J+K+L+    M+N+O+t+% P+t Q+R+S+T+          > 5 : g v I U+Y.V+    W+A U.X+h+Y+m = $+%+k+Z+          ",
"            `+ @=+G+o.4+H+;+I+o+.@+@@@    { #@< ~ u+= $@R+%@&@*@=@            6 v i y+w       E -@;@X+h+>@8.= $+j+k+Z+,@        ",
"          '@)@ @=+n.z.4+B.!@I+o+.@~@{@]@    ! ^@% /@= Q+R+(@&@i.=@_@:@<@          i         [@B }@;@|@h+>@{ = 1@2@k+3@4@        ",
"          5@`+6@7@y.z.A.-+;+I+7+.@+@@@]@8@    9@++u+= $@R+0@a@i.=@a.:@].b@l.                c@:.d@e@f@h+Y+@+= $+j+g@Z+4@h@      ",
"        i@'@)@|+=+y.j@k@-+;+6+7+l@+@m@n@o@p@    q@r@= Q+s@t@&@*@u@x v@`.w@x@y@                r.D z@9+A@d @+t $+j+g@3@B@C@      ",
"        D@E@F@G@=+G+P.A.-+!@6+H@.@+@@@]@I@J@K@      L@Q+R+%@&@i.M@@.v@N@O@x@P@                  Q@R@S@A@d { = M.%+k+Z+4@#.      ",
"        T@U@F@|+V@y.o.W@B.5+6+X@.@~@@@Y@Z@`@ #.#      +#s@(@a@i.=@L :@`.w@@#        r+O+##            $#Y+8.%#$+j+&@3@4@&#*#    ",
"      =#D@'@-#|+7@G+z.k@-+;+;#>#K+~@@@]@Z@`@,#'#)#      s@t@&@i.=@}.!#`.~#{#      ]#^#| t+/#(#_#          :#= 1@j+k+C+<#j.[#    ",
"      }#T@E@F@|+=+y.P.4+-+;+I+|#K+1#@@Y@o@2#3#4#5#6#      %@&@i.M@a.7#8#9#      0#a#r+a+b#c#& d#3 e#            f#k+Z+g#{.t./.  ",
"    h#i#j#U@`+E+x.y.j@k#B.5+6+o+K+l#@@Y@I@2#m#4#n#o#p#      q#i.M@L :@/+      z@r#s#t#U u#v#& w#x#$+y#0@            Z+4@j.$.{#  ",
"    z#i#A#B#-#E+7@y.P.4+B.5+6+H@.@+@m@Y@C#2#D#4#E#F#G#H#      I#=@a.J#    K#S.L#M#N#r+' t+/#{ O#P#$+Q#: q#R#S#            T#x@  ",
"    z#}#D@E@F@|+=+U#V#k#-+;+6+W#X#Y#{@n@Z#2#3#4#`# $.$+$@$              #$$$D %$a a#&$O+t+c#& d#x#$+y#: &@*$j =$-$              ",
"  ;$z#i#D@U@`+|+1+y.P.W@-+;+;#o+l@+@@@Y@I@>$ #,$'$ $.$)$!$~$          {$o ]$D n M#a#t#| t+c#{ ^$x#M.Q#<.&@/$j ($~._$:$<$        ",
"  [$z#}$D@B#-#G@7@y.z.4+-+5+|$X@X#Y#m@Y@I@1$,#2$'$3$4$5$!$6$          7$8$9$D D.0$a#^#U b#/#L.O#x#$+y#: a$*$j b$c$_$:$d$e$      ",
"  ;$z#i#T@f$-#|+=+2+3+A.g$;+I+o+l@+@m@]@Z#>$,#h$`#3$.$+$!$i$          j$k$]$l$m$r#N#^#O+t+c#{ n$Y $+Q#o$a$/$p$,@q$r$s$t$u$y@    ",
"  v$w$}#D@E@)@ @1+G+P.k@g$;+6+>#l@x$@@n@I@2# #y$n#F#4$z$!$A$            B$]$C$n r#a#t#| t+c#D$E$Y $+Q#F$&@/$..b$q$G$H$I$        ",
"    J$i#D@E@)@|+1+y.j@k#-+;+K$o+l@~@m@Y@8@`@m#y$n#F#G#)$L$              6 M$l$%$a b N$U t+++& n$Y Z y#O$&@P$Q$b$R$              ",
"    S$}#D@B#T$U$7@n.P.4+B.;+;#H@l@~@@@]@I@>$m#4#'$F#.$V$      W$M@@.X$    R+S.Y$0$Z$t#`$t+ %.%O#x#M.y#: &@P$+%          @%[#u$  ",
"    #%}#A#B#)@U$O.y.P.A.B.5+I+H@l@Y#{@n@Z@2#m#y$5#o#$%      %%i.=@@.h@1.    &%*%r#N#N$U u#c#L.O#Y M.Q#O$a@          S#=%-%2.x@  ",
"      }$;%'@)@U$=+y.j@k#B.;+I+o+l@l#m@]@Z@>$,#h$'$>%      ,%&@I#=@@.h@`.'%    )%e.s#t#' ##c#& O#P#!%          ~%,%g@3@<##.t.&.  ",
"      {%D@E@-#U$=+2+]%k@B.^%I+o+l@l#@@]@/%2# #4#(%      4 %@&@_%M@L v@`.w@&.    :%<%r+| u#c#8.[%          }%|%1@j+k+3@1%&#t.    ",
"        2%B#`+U$7@G+z.k#-+3%I+|#X#Y#m@Y@Z@>$ #4%      v+R+%@&@I#u@x v@`.w@@#y@      r `$)             5%d 8.[+M.j+g@Z+4@j.6%    ",
"        i@f$F@ @V@G+j@k@B.;+I+H@7%8%@@9%8@>$0%      |%q+h.(@a@*@u@@.:@`.~#u$a%                  b%c%9+g+i+<+= M.B+g@Z+<##.      ",
"        d%B#e%|+=+n.3+k@-+;+6+o+l@~@@@]@Z#f%      /@= g%N.%@&@i.h%@.7#].w@x@                  -@i%;@j%A@>@{ t 1@j+g@Z+4@&#      ",
"          B#e%|+O.y.3+k#B.5+k%H@K++@m@]@l%      m%c+= $@R+(@&@I#u@@.v@].w@n%                o%B i%S.p%h+d <+q%M.j+k+Z+<#v@      ",
"          5@-#|+=+n.P.4+-+r%|$X@l@+@@@s%      :%% P+= Q+N.%@&@_%M@@.:@t%          u%        v%:.w%U.f@g+d & t M.j+g@C+4@        ",
"            F@|+=+2+z.W@B.x%6+H@l@l#y%      5%< % P+= g%N.t@&@i.z%            T+v i ..w       E i%A%p%g+:+<+g.B%j+&@Z+C%        ",
"            D%U$=+y.o.A.B.E%I+o+K+F%      G%`$t+H%u+I%q+R+,%J%          K%L%: g h H...0.1%    v A ;@9+g+d <+= M.j+&@3@          ",
"            M%G@1+2+N%k@-+;+I+o+O%      !+s+`$^@H%P%= Q%            - / e f <.R%v i y+w @.z+    S%,.X+g+>@{ t $+j+g@T%          ",
"              G@1+y.z.k@B.;+|$U%      V%W%s+`$^@7.X%          Y%G t Y / h.5 : g h i j w @.Z%#.    8+`%g+i+8.q%M.j+k+l+          ",
"               &=+2+P.A.-+5+.&    +&>.5.@&s+N+#&          . % & G t Y / h.5 : g v H.j +.a.I.j.$&    q+6.d <+q%$+j+g@            ",
"                7@U#P.4+H+%&    &&U.*&=&$ -&          E.1 V % & * ;&^ / 4 5 : 6 v i ..Y.>&~.-%N 6%    n$,&8.= $+j+%%            ",
"                '&G+o.4+-+    )&n c !&          ~&r } | 6.i+% & 2 t Y {&H _ : 6 9.i ..w a.y ]&N $.J.    ^&/&t $+%+              ",
"                  (&o._&      7 ($          p >.b c } | 1 ! % <+* t Y / h.f : g v i j 0.@.y j.N O ^.&.      :&<&                ",
"                                      S D [&p q }&s.P | ) i+% { 2 = - / H x+: 6 9.i ..0.a.y #.N $.3.l.b.                        ",
"                                  |&B C 1&o 2&F e.s.} ' 6.V % & * t - / 4 f <.g v i J Y.@.~.#.N t.k.&.b.                        ",
"                                p =.B C D o E q e.c } W.1 ! % 8.W X Y Z 4 5 : 6 v i.J w @.y |.3&[#4&l.(.5&                      ",
"                                r#=.:.-.D o E >.e.s.} W.6.! % & * = - / 6&5 : g v I U+w }.y #.1.2.4&l.b.                        ",
"                                7&Q 8&C C$o E >.T s.} W.) ! % & 2 t - Z 4 f : g v i j Y.L ~.|.N t.3.9&                          ",
"                                  0&B C D o E >.b r } | ) ! % 8.G = ^ / h.f : g h i J K L ~.#.N a&                              ",
"                                    b&Y c&o p >.T s.} | 6.! % { * t Y / H x+: d&v i ..e&@.Z%z                                   ",
"                                          f&r@>.e.s.} ' 1 i+~ & 2 = - / g&f : g v I y+h&                                        ",
"                                              i&j&h+k&| 6.l&~ 8.* = ^ / h.5 : g v m&                                            ",
"                                                    D$_+1 ! n&(#* X - Z h.5 o&                                                  ",
"                                                        < p&% { 2 = ^ / q&                                                      ",
"                                                              r&@+= &%                                                          "};
