/* XPM */
static char * D:\work\wn8\wn8_node\share\pixmaps\bitcoin32_xpm[] = {
"32 32 306 2",
"  	c None",
". 	c #2994E7",
"+ 	c #2D8AE3",
"@ 	c #3280E0",
"# 	c #20AFED",
"$ 	c #21ABED",
"% 	c #26A2EA",
"& 	c #2997E7",
"* 	c #317EDF",
"= 	c #3572DD",
"- 	c #3966D9",
"; 	c #23AAEB",
"> 	c #1BC0F2",
", 	c #1EBAF0",
"' 	c #22AEED",
") 	c #25A2EA",
"! 	c #2996E6",
"~ 	c #3573DC",
"{ 	c #3967D9",
"] 	c #3D5BD6",
"^ 	c #4050D3",
"/ 	c #4545D0",
"( 	c #26A1EA",
"_ 	c #10DDFA",
": 	c #15D1F7",
"< 	c #19C5F3",
"[ 	c #1DB9F0",
"} 	c #21ADED",
"| 	c #25A2E9",
"1 	c #2D8BE4",
"2 	c #317EE0",
"3 	c #3673DD",
"4 	c #4150D2",
"5 	c #4543D0",
"6 	c #4938CC",
"7 	c #4D2CCA",
"8 	c #12DAFA",
"9 	c #11DCFA",
"0 	c #1EBAF1",
"a 	c #25A1E9",
"b 	c #2996E7",
"c 	c #2C8BE3",
"d 	c #307DDF",
"e 	c #4250D2",
"f 	c #4443CF",
"g 	c #4937CC",
"h 	c #4E2CC9",
"i 	c #5220C6",
"j 	c #21AEED",
"k 	c #3E5CD6",
"l 	c #414FD2",
"m 	c #4543CF",
"n 	c #4D2CC8",
"o 	c #5020C6",
"p 	c #1070D1",
"q 	c #1267CA",
"r 	c #16CDF5",
"s 	c #1EB9F0",
"t 	c #21AEEE",
"u 	c #2D8BE3",
"v 	c #3572DC",
"w 	c #4644D0",
"x 	c #4D2DC8",
"y 	c #2A91E3",
"z 	c #2C8EE4",
"A 	c #0F70D2",
"B 	c #165EC2",
"C 	c #3476DD",
"D 	c #19C4F3",
"E 	c #1DBBF0",
"F 	c #24A1EA",
"G 	c #4544CF",
"H 	c #4938CD",
"I 	c #2E85E1",
"J 	c #2898E7",
"K 	c #3080E1",
"L 	c #3A69DA",
"M 	c #0D78DC",
"N 	c #0F70D3",
"O 	c #1266CB",
"P 	c #165DC3",
"Q 	c #1A56BC",
"R 	c #2E84E3",
"S 	c #1FB4EE",
"T 	c #24A8EB",
"U 	c #2895E6",
"V 	c #2F85E0",
"W 	c #2D8AE4",
"X 	c #307EDF",
"Y 	c #3472DD",
"Z 	c #4545CF",
"` 	c #3479DD",
" .	c #20AEED",
"..	c #289BE8",
"+.	c #3080E0",
"@.	c #3968D9",
"#.	c #0B79DB",
"$.	c #1367CA",
"%.	c #1A54BA",
"&.	c #1D4BB3",
"*.	c #2A93E5",
"=.	c #24A5EB",
"-.	c #2995E6",
";.	c #2F82E1",
">.	c #356FDC",
",.	c #3B60D7",
"'.	c #3966DA",
").	c #4050D2",
"!.	c #366EDB",
"~.	c #1FB3EE",
"{.	c #289AE7",
"].	c #3181E0",
"^.	c #4051D3",
"/.	c #1267CB",
"(.	c #1A54BB",
"_.	c #1E4CB3",
":.	c #2143AC",
"<.	c #24A1EB",
"[.	c #3083E1",
"}.	c #3670DB",
"|.	c #3C5ED7",
"1.	c #424BD1",
"2.	c #483BCE",
"3.	c #1DB8F0",
"4.	c #17CCF6",
"5.	c #279AE7",
"6.	c #3081E0",
"7.	c #3967DA",
"8.	c #414ED1",
"9.	c #0983E4",
"0.	c #0B79DA",
"a.	c #165DC2",
"b.	c #1A55BA",
"c.	c #1D4BB2",
"d.	c #2142AA",
"e.	c #253AA3",
"f.	c #269DE9",
"g.	c #3570DC",
"h.	c #3C5ED6",
"i.	c #434CD2",
"j.	c #4839CD",
"k.	c #4F27C7",
"l.	c #17CCF5",
"m.	c #1FB4EF",
"n.	c #279AE8",
"o.	c #3A68DA",
"p.	c #424ED2",
"q.	c #493BCD",
"r.	c #0781E3",
"s.	c #2142AB",
"t.	c #2439A2",
"u.	c #2838A0",
"v.	c #4939CD",
"w.	c #4E27C7",
"x.	c #21B0EE",
"y.	c #259FE8",
"z.	c #3181E1",
"A.	c #4A36CC",
"B.	c #048AE9",
"C.	c #0782E2",
"D.	c #0F71D3",
"E.	c #1367CB",
"F.	c #2143AA",
"G.	c #2539A2",
"H.	c #28309A",
"I.	c #2B3199",
"J.	c #424CD1",
"K.	c #483ACD",
"L.	c #20B0EE",
"M.	c #25A0E9",
"N.	c #2B8FE4",
"O.	c #307FE0",
"P.	c #3670DC",
"Q.	c #3867D8",
"R.	c #414ED2",
"S.	c #4B35CB",
"T.	c #048CEB",
"U.	c #0782E3",
"V.	c #0C79DB",
"W.	c #1071D3",
"X.	c #175EC3",
"Y.	c #1954BB",
"Z.	c #2439A3",
"`.	c #2C2792",
" +	c #2E2A92",
".+	c #1EB9EF",
"++	c #15D0F6",
"@+	c #1AC0F2",
"#+	c #20B0ED",
"$+	c #26A0E9",
"%+	c #2C90E5",
"&+	c #376FDB",
"*+	c #3C5FD7",
"=+	c #0292F1",
"-+	c #058CEB",
";+	c #0882E2",
">+	c #1E4CB2",
",+	c #301E8A",
"'+	c #31238C",
")+	c #10E1FB",
"!+	c #15D0F7",
"~+	c #317FDF",
"{+	c #376EDB",
"]+	c #473ECD",
"^+	c #4D2FC9",
"/+	c #0293F1",
"(+	c #1070D3",
"_+	c #2143AB",
":+	c #29309A",
"<+	c #2F1D8A",
"[+	c #30238B",
"}+	c #14D6F8",
"|+	c #25A0EA",
"1+	c #317FE0",
"2+	c #424FD3",
"3+	c #4C2EC9",
"4+	c #048BEA",
"5+	c #0882E3",
"6+	c #2042AB",
"7+	c #2B2793",
"8+	c #2D2B92",
"9+	c #327EE1",
"0+	c #17C9F5",
"a+	c #2B90E5",
"b+	c #366EDC",
"c+	c #424ED3",
"d+	c #0C79DA",
"e+	c #1A55BB",
"f+	c #253AA2",
"g+	c #2B329A",
"h+	c #424BD2",
"i+	c #493ACD",
"j+	c #2A97E7",
"k+	c #1BBCF1",
"l+	c #269FE9",
"m+	c #346EDD",
"n+	c #3864D7",
"o+	c #4A35CB",
"p+	c #0883E3",
"q+	c #2839A1",
"r+	c #4939CC",
"s+	c #4F28C7",
"t+	c #1EB5EF",
"u+	c #259FEA",
"v+	c #3867D9",
"w+	c #253FA6",
"x+	c #2F82E0",
"y+	c #4F27C8",
"z+	c #16CDF6",
"A+	c #3180E0",
"B+	c #483ACC",
"C+	c #0880E1",
"D+	c #2246AF",
"E+	c #493ACC",
"F+	c #19C4F4",
"G+	c #2899E7",
"H+	c #1F4EB6",
"I+	c #23A8EC",
"J+	c #2A95E6",
"K+	c #3B5DD7",
"L+	c #1AC3F4",
"M+	c #289AE8",
"N+	c #0C77DA",
"O+	c #1C55BD",
"P+	c #1CBAF1",
"Q+	c #23A7EB",
"R+	c #2E82E1",
"S+	c #3D5BD5",
"T+	c #404FD2",
"U+	c #327CE1",
"V+	c #21ADEC",
"W+	c #195BC3",
"X+	c #19C7F4",
"Y+	c #1DB7EF",
"Z+	c #4250D3",
"`+	c #3868DA",
" @	c #0E70D2",
".@	c #1167CB",
"+@	c #279CE8",
"@@	c #18C3F1",
"#@	c #24A2EA",
"$@	c #4543CE",
"%@	c #4937CD",
"&@	c #4E2DC8",
"*@	c #2899E9",
"=@	c #2E88E2",
"-@	c #11DDFB",
";@	c #1CB9F1",
">@	c #414FD3",
",@	c #4D2CC9",
"'@	c #5121C6",
")@	c #12D9F9",
"!@	c #19C5F4",
"~@	c #327FE0",
"{@	c #3A67D9",
"]@	c #4D2BC9",
"^@	c #5120C5",
"/@	c #22A8ED",
"(@	c #14D1F7",
"_@	c #4644CF",
":@	c #21ACED",
"<@	c #1FB5EF",
"[@	c #4444D1",
"}@	c #3968DA",
"|@	c #259CE8",
"1@	c #307FE1",
"                              . + @                             ",
"                        # $ % & + * = -                         ",
"                    ; > , ' ) ! + * ~ { ] ^ /                   ",
"                ( _ : < [ } | ! 1 2 3 { ] 4 5 6 7               ",
"                8 9 : < 0 } a b c d ~ { ] e f g h i             ",
"                  _ : < [ j a ! + * ~ { k l m 6 n o             ",
"        p q     r       s t ) ! u * v { ] l w 6 x   y z         ",
"        A q B   C D E       F ! u 2 = { ] l G H   I J K L       ",
"      M N O P Q   R S T U V     W X Y - ] l Z   `  ...+.@.      ",
"      #.A $.B %.&.  *.=.-.;.>.,.      '.k ).  !.D ~.{.].@.^.    ",
"      #.N /.P (._.:.  <.! [.}.|.1.2.          3.4.~.5.6.7.8.    ",
"    9.0.N $.a.b.c.d.e.  f.[.g.h.i.j.k.          l.m.n.+.o.p.q.  ",
"    r.0.N /.B %.c.s.t.u.    }.|.i.v.w.    x.y.      J z.{ p.A.  ",
"  B.C.0.D.E.B b.&.F.G.H.I.    |.J.K.    > L.M.N.O.P.    Q.R.S.  ",
"  T.U.V.W.E.X.Y.&.s.Z.H.`. +    i.  .+++@+#+$+%+2 &+*+l         ",
"=+-+;+0.N $.B %.>+d.Z.H.`.,+'+      )+!+> # $+N.~+{+*+R.]+^+    ",
"/+-+;+0.(+$.B b.c._+Z.:+`.<+[+      }+!+> L.|+N.1+!.*+2+]+3+    ",
"  4+5+0.N /.X.b.c.6+Z.H.7+8+    i.  9+0+> x.$+a+~+b+|.c+        ",
"  4+5+d+N $.X.e+_.d.f+H.g+    h.h+i+  j+k+# l+a+1+m+    n+R.o+  ",
"    p+#.A $.B b.>+d.t.q+    P.|.h+r+s+  t+L.u+      J K v+p.A.  ",
"    ;+0.A $.P b.>+6+w+    x+}.|.h+j.y+          z+m.{.A+{ p.B+  ",
"    C+V.N q B (.&.D+    -.[.P.h.h+E+          F+l.m.G++.{ p.    ",
"      0.A q a.%.H+    I+J+[.P.K+      7.] ).    L+~.M++.7.^.    ",
"      N+A $.B O+    P+Q+-.R+    c 1+~ { S+T+/   U+V+M++.{       ",
"        A E.W+  l+X+Y+      |+! u 2 v o.k Z+G v.  c J +.`+      ",
"         @.@    +@    @@, t #@! + 2 ~ - k Z+$@%@&@  *@=@        ",
"                  -@: < ;@} ) ! u * v o.] >@G 6 ,@'@            ",
"                )@9 : !@[ V+| ! u ~@v {@] >@5 g ]@^@            ",
"                /@9 (@!@[ } a & u * 3 { S+l _@g n               ",
"                    :@<@[ j a ! + * = { S+>@[@                  ",
"                        J Q+#@! + * v }@                        ",
"                              |@u 1@                            "};
