/* XPM */
static char * D:\work\wn8\wn8_node\share\pixmaps\bitcoin16_xpm[] = {
"16 16 124 2",
"  	c None",
". 	c #289BE7",
"+ 	c #2E86E2",
"@ 	c #366ED9",
"# 	c #18C5F3",
"$ 	c #17CBF6",
"% 	c #1FB3EE",
"& 	c #279CE8",
"* 	c #2F84E2",
"= 	c #376DDB",
"- 	c #3F55D4",
"; 	c #4540CF",
"> 	c #16CFF5",
", 	c #17CCF6",
"' 	c #20B3EE",
") 	c #289CE8",
"! 	c #3084E1",
"~ 	c #386DDB",
"{ 	c #4055D4",
"] 	c #483ECD",
"^ 	c #5027C7",
"/ 	c #116BCE",
"( 	c #1EB6EF",
"_ 	c #1EB2EF",
": 	c #279AE7",
"< 	c #376CDB",
"[ 	c #4246D1",
"} 	c #2D8EE5",
"| 	c #116BCF",
"1 	c #195ABF",
"2 	c #205CBF",
"3 	c #22AAEC",
"4 	c #2B8EE4",
"5 	c #3476DF",
"6 	c #376CDA",
"7 	c #4054D5",
"8 	c #1FB6F0",
"9 	c #2C8EE4",
"0 	c #3B60D8",
"a 	c #0A7EDF",
"b 	c #1859BF",
"c 	c #1F47B0",
"d 	c #2452B5",
"e 	c #2D89E2",
"f 	c #3967D9",
"g 	c #4643CF",
"h 	c #1DB8F0",
"i 	c #3D5BD5",
"j 	c #097EDF",
"k 	c #1859C0",
"l 	c #1F47AF",
"m 	c #26359F",
"n 	c #2E3CA5",
"o 	c #3966D9",
"p 	c #4643CE",
"q 	c #2997E8",
"r 	c #2E89E5",
"s 	c #3E58D5",
"t 	c #4D34C9",
"u 	c #038DED",
"v 	c #116CCF",
"w 	c #1F47AE",
"x 	c #26349E",
"y 	c #2B2D95",
"z 	c #13D7F8",
"A 	c #2997E6",
"B 	c #3477DE",
"C 	c #3F58D6",
"D 	c #4836CC",
"E 	c #038DEC",
"F 	c #2C2D95",
"G 	c #17CAF5",
"H 	c #1EB8EF",
"I 	c #3376DD",
"J 	c #3D56D4",
"K 	c #4A38CD",
"L 	c #273CA4",
"M 	c #2872C9",
"N 	c #3A66D9",
"O 	c #4642CF",
"P 	c #4644D1",
"Q 	c #289AE7",
"R 	c #307EE1",
"S 	c #3D5AD6",
"T 	c #4A30CA",
"U 	c #0B7DDE",
"V 	c #214AB2",
"W 	c #2670CD",
"X 	c #2D8AE2",
"Y 	c #3967DA",
"Z 	c #4544D0",
"` 	c #1CBFF1",
" .	c #3D5BD6",
"..	c #126CCF",
"+.	c #185ABF",
"@.	c #2470CD",
"#.	c #21AFEE",
"$.	c #356FDB",
"%.	c #307CDF",
"&.	c #386CDB",
"*.	c #4052D3",
"=.	c #1EB3EE",
"-.	c #2C8DE4",
";.	c #3A61D8",
">.	c #106CCF",
",.	c #22ACED",
"'.	c #20AFED",
").	c #269BE7",
"!.	c #2F84E1",
"~.	c #3F54D4",
"{.	c #473DCE",
"].	c #2B8FE5",
"^.	c #10E3FC",
"/.	c #18CBF5",
"(.	c #2F83E2",
"_.	c #473DCD",
":.	c #4F26C7",
"<.	c #25A2EB",
"[.	c #1BC0F2",
"}.	c #20B3EF",
"|.	c #473FCE",
"1.	c #269EE8",
"2.	c #3085E1",
"3.	c #366EDD",
"              . + @             ",
"        # $ % & * = - ;         ",
"        > , ' ) ! ~ { ] ^       ",
"    /   (   _ : ! < - ] [ }     ",
"    | 1 2 3 4   5 6 { 7 8 9 0   ",
"  a / b c d e f g       h 4 i   ",
"  j / k l m n o p   ( q r   s t ",
"u j v b w x y     z h A B C D   ",
"E a v b l m F     G H A I J K   ",
"  j | b l L M N O P ( Q R + S T ",
"  U / b V W X Y Z       ` 9  .  ",
"    ..+.@.#.4 $.%.&.- *.=.-.;.  ",
"    >.  ,.  '.).!.6 ~.{.P ].    ",
"        ^./.% & (.&.{ _.:.      ",
"        <.[.}.& * < - |.        ",
"              1.2.3.            "};
