<?xml version="1.0" encoding="UTF-8" standalone="no"?>
<svg
   xmlns:dc="http://purl.org/dc/elements/1.1/"
   xmlns:cc="http://creativecommons.org/ns#"
   xmlns:rdf="http://www.w3.org/1999/02/22-rdf-syntax-ns#"
   xmlns:svg="http://www.w3.org/2000/svg"
   xmlns="http://www.w3.org/2000/svg"
   xmlns:sodipodi="http://sodipodi.sourceforge.net/DTD/sodipodi-0.dtd"
   xmlns:inkscape="http://www.inkscape.org/namespaces/inkscape"
   width="512"
   height="512"
   viewBox="0 0 512 512"
   fill="none"
   version="1.1"
   id="svg133"
   sodipodi:docname="firo.svg"
   inkscape:version="1.0.2 (e86c870879, 2021-01-15, custom)">
  <metadata
     id="metadata137">
    <rdf:RDF>
      <cc:Work
         rdf:about="">
        <dc:format>image/svg+xml</dc:format>
        <dc:type
           rdf:resource="http://purl.org/dc/dcmitype/StillImage" />
        <dc:title></dc:title>
      </cc:Work>
    </rdf:RDF>
  </metadata>
  <sodipodi:namedview
     pagecolor="#ffffff"
     bordercolor="#666666"
     borderopacity="1"
     objecttolerance="10"
     gridtolerance="10"
     guidetolerance="10"
     inkscape:pageopacity="0"
     inkscape:pageshadow="2"
     inkscape:window-width="1920"
     inkscape:window-height="1017"
     id="namedview135"
     showgrid="false"
     inkscape:zoom="0.58695387"
     inkscape:cx="692.20475"
     inkscape:cy="312.88677"
     inkscape:window-x="-8"
     inkscape:window-y="-8"
     inkscape:window-maximized="1"
     inkscape:current-layer="svg133"
     fit-margin-left="0"
     fit-margin-top="0"
     fit-margin-right="0"
     fit-margin-bottom="0" />
  <g
     clip-path="url(#clip0_13_117)"
     id="g34"
     transform="matrix(0.5,0,0,0.5,-5.9999875,0)">
    <path
       d="M 695.218,315.886 827.756,183.348 c 4.711,-4.71 8.189,-10.508 10.126,-16.883 1.937,-6.374 2.272,-13.127 0.976,-19.662 -1.295,-6.535 -4.182,-12.65 -8.404,-17.803 -4.222,-5.153 -9.649,-9.186 -15.802,-11.742 L 539.266,3.19408 c -9.928,-4.101546 -21.076,-4.101546 -31.004,0 L 281.924,96.9228 c -7.431,3.0545 -13.787,8.2482 -18.259,14.9232 -4.473,6.674 -6.861,14.527 -6.861,22.561 0,8.034 2.388,15.887 6.861,22.562 4.472,6.674 10.828,11.868 18.259,14.922 l 369.115,152.802 c 7.406,3.087 15.563,3.897 23.432,2.329 7.868,-1.569 15.091,-5.446 20.747,-11.136 z"
       fill="url(#paint0_linear_13_117)"
       id="path2"
       style="fill:url(#paint0_linear_13_117)" />
    <path
       d="M 523.728,0.0436967 C 516.357,0.680738 509.206,2.87738 502.749,6.48799 L 482.485,15.7964 441.599,33.7688 C 414.462,45.655 386.966,57.3263 359.685,68.6396 l -41.315,16.7552 -20.622,8.3776 -10.382,4.153 c -3.372,1.1877 -6.65,2.6236 -9.81,4.2966 -6.079,3.562 -11.051,8.741 -14.363,14.96 -3.312,6.22 -4.834,13.236 -4.397,20.268 0.371,7.173 2.645,14.118 6.588,20.121 4.123,6.175 9.838,11.123 16.54,14.321 -7.198,-2.598 -13.51,-7.188 -18.201,-13.235 -4.69,-6.047 -7.566,-13.302 -8.292,-20.92 -0.85,-7.851 0.518,-15.783 3.948,-22.896 3.429,-7.112 8.784,-13.122 15.456,-17.3452 6.677,-3.5645 13.563,-6.7208 20.622,-9.4517 l 20.479,-8.664 41.028,-17.3996 c 27.353,-11.0269 54.92,-22.4834 82.631,-33.2955 l 41.529,-16.1107 20.909,-7.80479 c 3.459,-1.4203 6.997,-2.63959 10.597,-3.65176 3.629,-0.889397 7.367,-1.251132 11.098,-1.0740533 z"
       fill="url(#paint1_linear_13_117)"
       id="path4"
       style="fill:url(#paint1_linear_13_117)" />
    <path
       d="m 742.333,343.095 c 1.283,6.539 4.192,12.65 8.459,17.769 4.268,5.118 9.756,9.079 15.958,11.517 l 193.83,80.267 32.365,13.676 c 2.668,1.275 5.666,1.692 8.585,1.195 2.91,-0.497 5.6,-1.884 7.7,-3.971 2.09,-2.088 3.49,-4.772 4,-7.685 0.5,-2.913 0.1,-5.912 -1.17,-8.585 L 918.334,221.011 c -2.511,-6.193 -6.532,-11.659 -11.698,-15.898 -5.165,-4.24 -11.31,-7.12 -17.874,-8.375 -2.691,-0.51 -5.424,-0.774 -8.163,-0.788 -5.326,-0.035 -10.606,0.998 -15.525,3.04 -4.92,2.042 -9.38,5.05 -13.116,8.846 l -98.383,98.741 c -4.775,4.664 -8.305,10.449 -10.269,16.828 -1.964,6.379 -2.298,13.148 -0.973,19.69 z"
       fill="url(#paint2_linear_13_117)"
       id="path6"
       style="fill:url(#paint2_linear_13_117)" />
    <path
       d="m 666.577,695.956 c -5.331,0.004 -10.609,1.05 -15.538,3.079 L 325.96,833.721 281.924,852.123 c -7.387,3.076 -13.699,8.271 -18.138,14.929 -4.44,6.658 -6.809,14.481 -6.809,22.484 0,8.002 2.369,15.825 6.809,22.483 4.439,6.658 10.751,11.853 18.138,14.929 l 226.338,93.732 c 4.91,2.05 10.179,3.11 15.502,3.11 5.322,0 10.592,-1.06 15.502,-3.11 L 814.652,906.613 c 6.153,-2.556 11.58,-6.589 15.802,-11.742 4.222,-5.153 7.109,-11.268 8.404,-17.803 1.296,-6.535 0.961,-13.288 -0.976,-19.662 -1.937,-6.375 -5.414,-12.173 -10.126,-16.883 l -98.67,-98.669 -33.868,-33.869 c -3.744,-3.796 -8.202,-6.814 -13.118,-8.878 -4.915,-2.065 -10.191,-3.136 -15.523,-3.151 z"
       fill="url(#paint3_linear_13_117)"
       id="path8"
       style="fill:url(#paint3_linear_13_117)" />
    <path
       d="m 888.834,826.99 c 6.564,-1.256 12.708,-4.135 17.874,-8.375 5.165,-4.24 9.187,-9.706 11.698,-15.899 L 1012.13,576.45 c 1.14,-2.665 1.44,-5.61 0.86,-8.448 -0.57,-2.838 -2,-5.435 -4.08,-7.448 -2.69,-2.72 -6.34,-4.286 -10.165,-4.368 -1.971,0.025 -3.918,0.438 -5.728,1.218 L 766.75,651.132 c -6.152,2.556 -11.579,6.589 -15.801,11.742 -4.222,5.154 -7.109,11.268 -8.405,17.803 -1.295,6.535 -0.96,13.288 0.977,19.662 1.936,6.375 5.414,12.173 10.126,16.883 l 98.669,98.669 c 4.678,4.75 10.47,8.254 16.848,10.192 6.378,1.939 13.14,2.25 19.67,0.907 z"
       fill="url(#paint4_linear_13_117)"
       id="path10"
       style="fill:url(#paint4_linear_13_117)" />
    <path
       d="m 938.312,269.129 c -7.161,-15.753 -14.321,-31.649 -21.481,-47.473 -3.314,-7.639 -9.017,-13.996 -16.254,-18.116 -3.57,-1.993 -7.439,-3.396 -11.457,-4.153 -4.025,-0.629 -8.109,-0.797 -12.172,-0.501 -8.072,1.027 -15.601,4.616 -21.481,10.239 l -18.259,18.402 -36.589,37.449 -36.804,36.231 c -3.008,3.008 -6.301,6.158 -9.094,9.094 -2.721,2.965 -4.946,6.35 -6.587,10.024 -3.223,7.441 -4.025,15.708 -2.292,23.629 1.666,8.031 5.947,15.283 12.173,20.622 6.908,4.929 14.477,8.859 22.483,11.671 15.825,7.161 31.72,14.321 47.473,21.481 -16.397,-5.943 -32.579,-12.244 -48.833,-18.33 l -12.173,-4.726 c -4.262,-1.62 -8.247,-3.891 -11.814,-6.731 -7.267,-5.846 -12.434,-13.899 -14.72,-22.941 -2.287,-9.042 -1.569,-18.583 2.046,-27.181 1.754,-4.267 4.17,-8.23 7.16,-11.743 3.151,-3.437 6.158,-6.301 9.237,-9.451 l 36.589,-37.091 37.091,-36.589 18.617,-18.331 c 6.874,-6.51 15.767,-10.477 25.204,-11.241 4.609,-0.216 9.228,0.145 13.748,1.074 4.475,1.023 8.755,2.764 12.674,5.155 7.847,4.821 13.887,12.094 17.184,20.693 6.087,16.04 12.459,32.508 18.331,48.834 z"
       fill="url(#paint5_linear_13_117)"
       id="path12"
       style="fill:url(#paint5_linear_13_117)" />
    <path
       d="m 766.75,651.132 c -5.483,2.587 -10.305,6.388 -14.101,11.115 -3.796,4.726 -6.467,10.255 -7.81,16.166 -1.43,5.67 -1.528,11.595 -0.286,17.309 1.243,5.715 3.791,11.064 7.446,15.629 l 52.414,51.769 c 17.399,17.399 34.871,35.229 51.697,52.7 4.31,3.97 9.484,6.884 15.113,8.512 5.63,1.628 11.56,1.925 17.324,0.868 5.983,-0.947 11.672,-3.245 16.634,-6.719 4.963,-3.474 9.069,-8.032 12.007,-13.33 -2.482,5.846 -6.313,11.022 -11.179,15.104 -4.866,4.082 -10.629,6.954 -16.818,8.382 -6.364,1.496 -12.989,1.492 -19.351,-0.011 -6.363,-1.504 -12.289,-4.466 -17.31,-8.653 -18.33,-17.113 -35.801,-34.441 -53.201,-51.841 l -25.992,-26.278 -12.96,-13.319 c -4.516,-4.377 -8.772,-9.016 -12.746,-13.891 -3.86,-5.281 -6.439,-11.388 -7.533,-17.838 -1.093,-6.449 -0.671,-13.065 1.232,-19.324 1.852,-6.089 5.121,-11.652 9.54,-16.233 4.418,-4.581 9.861,-8.048 15.88,-10.117 z"
       fill="url(#paint6_linear_13_117)"
       id="path14"
       style="fill:url(#paint6_linear_13_117)" />
    <path
       d="m 482.485,511.864 c 0.011,-5.323 -1.033,-10.595 -3.073,-15.512 -2.041,-4.916 -5.036,-9.379 -8.813,-13.129 L 195.213,207.693 c -4.715,-4.71 -10.519,-8.184 -16.897,-10.116 -6.378,-1.931 -13.134,-2.26 -19.669,-0.957 -6.536,1.303 -12.649,4.197 -17.799,8.427 -5.15,4.229 -9.177,9.664 -11.725,15.821 L 15.0587,496.398 c -4.0783,9.932 -4.0783,21.072 0,31.004 L 129.123,802.717 c 2.548,6.157 6.575,11.592 11.725,15.821 5.15,4.23 11.263,7.124 17.799,8.427 6.535,1.303 13.291,0.974 19.669,-0.958 6.378,-1.931 12.182,-5.406 16.897,-10.115 l 27.209,-27.21 22.34,-22.483 225.837,-225.694 c 3.777,-3.75 6.772,-8.213 8.813,-13.129 2.04,-4.917 3.084,-10.189 3.073,-15.512 z"
       fill="url(#paint7_linear_13_117)"
       id="path16"
       style="fill:url(#paint7_linear_13_117)" />
    <path
       d="m 195.213,815.892 26.564,-27.854 c 33.439,-35.086 67.451,-69.67 101.319,-104.326 l 102.536,-103.18 25.849,-25.634 12.888,-12.746 c 4.336,-3.764 7.994,-8.244 10.812,-13.246 2.549,-5 3.954,-10.504 4.115,-16.114 0.161,-5.61 -0.926,-11.185 -3.184,-16.323 -2.409,-5.194 -5.815,-9.865 -10.024,-13.748 l -12.746,-12.96 c -33.868,-34.656 -67.665,-69.455 -100.96,-104.755 35.3,33.295 70.028,67.092 104.684,101.032 l 13.175,12.674 c 4.844,4.265 8.725,9.513 11.385,15.394 2.721,5.968 4.063,12.472 3.927,19.029 -0.137,6.558 -1.748,13 -4.715,18.849 -3.036,5.618 -7.035,10.659 -11.815,14.894 l -13.103,12.817 -25.634,25.777 -102.894,102.536 c -34.656,33.868 -69.169,67.88 -104.326,101.319 z"
       fill="url(#paint8_linear_13_117)"
       id="path18"
       style="fill:url(#paint8_linear_13_117)" />
    <path
       d="m 552.442,458.734 54.203,-54.275 c 4.71,-4.715 8.184,-10.518 10.116,-16.896 1.931,-6.378 2.26,-13.134 0.957,-19.669 -1.302,-6.536 -4.197,-12.649 -8.426,-17.799 -4.23,-5.15 -9.664,-9.177 -15.822,-11.726 L 255.431,198.242 c -1.017,-0.447 -2.112,-0.69 -3.222,-0.716 -1.194,0.048 -2.356,0.395 -3.382,1.008 -1.025,0.612 -1.881,1.472 -2.49,2.5 -1.046,1.423 -1.53,3.182 -1.358,4.94 0.171,1.758 0.987,3.39 2.289,4.583 l 247.819,248.177 c 7.63,7.561 17.936,11.802 28.677,11.802 10.741,0 21.048,-4.241 28.678,-11.802 z"
       fill="url(#paint9_linear_13_117)"
       id="path20"
       style="fill:url(#paint9_linear_13_117)" />
    <path
       d="m 322.738,226.239 c -14.321,-5.084 -28.641,-10.669 -42.962,-15.968 l -21.481,-8.306 c -1.647,-0.573 -3.795,-1.575 -5.084,-1.862 -0.596,-0.155 -1.219,-0.177 -1.826,-0.066 -0.606,0.111 -1.18,0.354 -1.682,0.711 -1.073,0.817 -1.872,1.941 -2.292,3.222 -0.188,0.545 -0.247,1.126 -0.173,1.697 0.075,0.572 0.281,1.118 0.603,1.597 l 64.872,63.941 c 21.481,21.481 42.962,43.392 64.443,65.446 l 31.721,33.152 c 10.382,11.17 20.979,22.269 31.219,33.654 -11.385,-10.239 -22.484,-20.837 -33.725,-31.219 L 373.29,340.517 c -22.054,-21.481 -43.678,-42.961 -65.446,-64.442 l -32.436,-32.58 -16.111,-16.326 -8.019,-8.162 -4.01,-4.153 c -1.55,-1.475 -2.942,-3.106 -4.153,-4.869 -0.666,-1.164 -1.07,-2.459 -1.181,-3.795 -0.111,-1.336 0.072,-2.681 0.537,-3.938 0.839,-2.35 2.423,-4.362 4.511,-5.729 1.052,-0.668 2.233,-1.108 3.466,-1.293 1.233,-0.185 2.491,-0.11 3.694,0.219 1.902,0.662 3.766,1.427 5.585,2.292 l 20.98,9.236 c 14.177,6.516 28.211,12.674 42.031,19.262 z"
       fill="url(#paint10_linear_13_117)"
       id="path22"
       style="fill:url(#paint10_linear_13_117)" />
    <path
       d="m 523.728,553.179 c -5.321,-0.003 -10.591,1.045 -15.507,3.085 -4.915,2.04 -9.378,5.031 -13.134,8.801 v 0 L 246.982,813.242 c -1.624,1.121 -2.736,2.84 -3.092,4.781 -0.356,1.94 0.074,3.942 1.194,5.566 1.121,1.624 2.84,2.736 4.781,3.092 1.94,0.356 3.942,-0.074 5.566,-1.194 L 593.47,685.359 c 6.17,-2.534 11.618,-6.555 15.859,-11.704 4.24,-5.15 7.142,-11.267 8.446,-17.809 1.304,-6.542 0.97,-13.305 -0.972,-19.686 -1.941,-6.382 -5.431,-12.184 -10.158,-16.891 l -54.204,-54.204 c -3.766,-3.776 -8.242,-6.77 -13.169,-8.81 -4.928,-2.039 -10.21,-3.085 -15.544,-3.076 z"
       fill="url(#paint11_linear_13_117)"
       id="path24"
       style="fill:url(#paint11_linear_13_117)" />
    <path
       d="m 318.871,741.281 c -15.752,17.901 -32.149,35.157 -48.547,52.413 l -12.315,12.889 -6.23,6.444 -2.936,3.008 c -0.516,0.601 -0.818,1.356 -0.859,2.148 0.043,0.836 0.287,1.65 0.711,2.373 0.424,0.723 1.015,1.333 1.724,1.78 1.432,0.644 2.219,0.573 5.442,-0.931 l 16.468,-7.16 c 22.054,-9.094 44.036,-18.044 66.305,-26.565 l 33.367,-12.746 c 11.17,-4.009 22.34,-8.234 33.654,-12.029 -10.741,5.299 -21.481,10.168 -32.365,15.251 l -32.58,14.321 c -21.481,9.667 -43.678,18.903 -65.588,28.069 l -16.541,6.73 -2.076,0.86 c -0.952,0.371 -1.934,0.658 -2.936,0.859 -2.27,0.344 -4.59,-0.085 -6.587,-1.217 -1.845,-1.079 -3.356,-2.645 -4.367,-4.528 -1.011,-1.883 -1.482,-4.008 -1.362,-6.141 0.199,-2.207 1.103,-4.291 2.578,-5.943 1.361,-1.504 2.22,-2.22 3.366,-3.366 l 6.372,-6.229 12.889,-12.316 c 17.614,-15.896 34.513,-32.222 52.413,-47.974 z"
       fill="url(#paint12_linear_13_117)"
       id="path26"
       style="fill:url(#paint12_linear_13_117)" />
    <path
       d="m 693.643,383.193 c -5.322,-0.004 -10.592,1.045 -15.507,3.085 -4.916,2.039 -9.379,5.031 -13.135,8.801 l -67.307,67.379 -20.765,20.765 c -3.767,3.758 -6.755,8.222 -8.795,13.137 -2.039,4.915 -3.089,10.183 -3.089,15.504 0,5.321 1.05,10.59 3.089,15.505 2.04,4.914 5.028,9.379 8.795,13.137 l 88.144,88.143 c 5.676,5.636 12.894,9.466 20.743,11.008 7.849,1.541 15.978,0.726 23.365,-2.344 v 0 L 977.693,526.042 c 2.845,-1.161 5.281,-3.143 6.995,-5.694 1.714,-2.55 2.63,-5.554 2.63,-8.627 0,-3.073 -0.916,-6.077 -2.63,-8.627 -1.714,-2.551 -4.15,-4.533 -6.995,-5.694 L 947.262,484.798 753.503,404.674 709.181,386.702 c -4.887,-2.216 -10.174,-3.41 -15.538,-3.509 z"
       fill="url(#paint13_linear_13_117)"
       id="path28"
       style="fill:url(#paint13_linear_13_117)" />
    <path
       d="m 633.568,426.584 c -17.615,19.691 -35.802,38.809 -53.918,57.784 -4.348,4.329 -7.594,9.638 -9.463,15.482 -1.869,5.844 -2.307,12.052 -1.277,18.1 1.021,5.944 3.479,11.548 7.16,16.326 3.58,4.511 8.951,9.237 13.462,13.819 18.545,18.689 37.09,37.377 55.277,56.495 l 13.605,14.321 c 4.249,4.864 8.895,9.367 13.891,13.461 5.277,3.737 11.376,6.15 17.781,7.035 6.406,0.885 12.93,0.216 19.023,-1.951 -6.126,2.891 -12.877,4.208 -19.641,3.833 -6.764,-0.375 -13.327,-2.431 -19.096,-5.981 -5.442,-3.958 -10.522,-8.391 -15.18,-13.247 L 640.871,608.457 C 621.753,590.27 603.065,571.724 584.376,553.179 l -7.16,-7.16 c -2.529,-2.392 -4.92,-4.926 -7.161,-7.59 -4.324,-5.739 -7.176,-12.451 -8.306,-19.548 -1.113,-7.022 -0.466,-14.212 1.884,-20.922 2.349,-6.711 6.328,-12.734 11.578,-17.529 19.548,-18.116 38.666,-36.446 58.357,-53.846 z"
       fill="url(#paint14_linear_13_117)"
       id="path30"
       style="fill:url(#paint14_linear_13_117)" />
    <path
       d="m 523.729,1023.97 c -3.731,0.14 -7.464,-0.22 -11.099,-1.07 -3.61,-0.98 -7.15,-2.2 -10.597,-3.66 l -20.908,-7.73 -41.53,-16.181 C 411.884,984.517 384.46,973.132 356.893,962.034 l -41.029,-17.328 -20.478,-8.736 c -7.072,-2.701 -13.96,-5.858 -20.622,-9.451 -6.706,-4.255 -12.077,-10.315 -15.497,-17.483 -3.419,-7.168 -4.749,-15.155 -3.836,-23.045 0.778,-7.567 3.677,-14.761 8.364,-20.753 4.687,-5.992 10.972,-10.538 18.129,-13.115 -6.702,3.197 -12.416,8.145 -16.54,14.32 -3.967,6.045 -6.242,13.042 -6.588,20.264 -0.437,7.033 1.085,14.049 4.397,20.268 3.312,6.22 8.284,11.398 14.363,14.961 3.16,1.673 6.439,3.109 9.81,4.296 l 10.383,4.153 20.621,7.662 41.315,16.827 c 27.281,11.599 54.777,22.913 81.986,34.87 l 40.814,17.976 20.264,9.23 c 6.412,3.81 13.566,6.21 20.98,7.02 z"
       fill="url(#paint15_linear_13_117)"
       id="path32"
       style="fill:url(#paint15_linear_13_117)" />
  </g>
  <defs
     id="defs131">
    <linearGradient
       id="paint0_linear_13_117"
       x1="256.93399"
       y1="163.94299"
       x2="839.64203"
       y2="163.94299"
       gradientUnits="userSpaceOnUse">
      <stop
         stop-color="#0BEEFF"
         id="stop36" />
      <stop
         offset="1"
         stop-color="#5418C3"
         id="stop38" />
    </linearGradient>
    <linearGradient
       id="paint1_linear_13_117"
       x1="253.354"
       y1="85.896004"
       x2="523.72803"
       y2="85.896004"
       gradientUnits="userSpaceOnUse">
      <stop
         stop-color="#5418C3"
         id="stop41" />
      <stop
         offset="1"
         stop-color="#0BEEFF"
         id="stop43" />
    </linearGradient>
    <linearGradient
       id="paint2_linear_13_117"
       x1="741.68903"
       y1="331.70999"
       x2="1013.28"
       y2="331.70999"
       gradientUnits="userSpaceOnUse">
      <stop
         stop-color="#0BEEFF"
         id="stop46" />
      <stop
         offset="1"
         stop-color="#5418C3"
         id="stop48" />
    </linearGradient>
    <linearGradient
       id="paint3_linear_13_117"
       x1="256.93399"
       y1="859.784"
       x2="839.64203"
       y2="859.784"
       gradientUnits="userSpaceOnUse">
      <stop
         stop-color="#0BEEFF"
         id="stop51" />
      <stop
         offset="1"
         stop-color="#5418C3"
         id="stop53" />
    </linearGradient>
    <linearGradient
       id="paint4_linear_13_117"
       x1="741.68903"
       y1="692.01801"
       x2="1013.28"
       y2="692.01801"
       gradientUnits="userSpaceOnUse">
      <stop
         stop-color="#0BEEFF"
         id="stop56" />
      <stop
         offset="1"
         stop-color="#5418C3"
         id="stop58" />
    </linearGradient>
    <linearGradient
       id="paint5_linear_13_117"
       x1="738.10901"
       y1="295.55099"
       x2="941.60602"
       y2="295.55099"
       gradientUnits="userSpaceOnUse">
      <stop
         stop-color="#5418C3"
         id="stop61" />
      <stop
         offset="1"
         stop-color="#0BEEFF"
         id="stop63" />
    </linearGradient>
    <linearGradient
       id="paint6_linear_13_117"
       x1="738.10797"
       y1="740.422"
       x2="920.48199"
       y2="740.422"
       gradientUnits="userSpaceOnUse">
      <stop
         stop-color="#5418C3"
         id="stop66" />
      <stop
         offset="1"
         stop-color="#0BEEFF"
         id="stop68" />
    </linearGradient>
    <linearGradient
       id="paint7_linear_13_117"
       x1="11.9797"
       y1="511.86401"
       x2="482.48499"
       y2="511.86401"
       gradientUnits="userSpaceOnUse">
      <stop
         stop-color="#0096F4"
         id="stop71" />
      <stop
         offset="1"
         stop-color="#35107E"
         id="stop73" />
    </linearGradient>
    <linearGradient
       id="paint8_linear_13_117"
       x1="192.70599"
       y1="590.48401"
       x2="486.065"
       y2="590.48401"
       gradientUnits="userSpaceOnUse">
      <stop
         stop-color="#5418C3"
         id="stop76" />
      <stop
         offset="1"
         stop-color="#0BEEFF"
         id="stop78" />
    </linearGradient>
    <linearGradient
       id="paint9_linear_13_117"
       x1="244.547"
       y1="334.073"
       x2="618.53101"
       y2="334.073"
       gradientUnits="userSpaceOnUse">
      <stop
         stop-color="#0BEEFF"
         id="stop81" />
      <stop
         offset="1"
         stop-color="#5418C3"
         id="stop83" />
    </linearGradient>
    <linearGradient
       id="paint10_linear_13_117"
       x1="240.967"
       y1="299.27399"
       x2="442.38699"
       y2="299.27399"
       gradientUnits="userSpaceOnUse">
      <stop
         stop-color="#5418C3"
         id="stop86" />
      <stop
         offset="1"
         stop-color="#0BEEFF"
         id="stop88" />
    </linearGradient>
    <linearGradient
       id="paint11_linear_13_117"
       x1="244.547"
       y1="689.72699"
       x2="618.53101"
       y2="689.72699"
       gradientUnits="userSpaceOnUse">
      <stop
         stop-color="#0BEEFF"
         id="stop91" />
      <stop
         offset="1"
         stop-color="#5418C3"
         id="stop93" />
    </linearGradient>
    <linearGradient
       id="paint12_linear_13_117"
       x1="240.967"
       y1="785.46002"
       x2="407.01501"
       y2="785.46002"
       gradientUnits="userSpaceOnUse">
      <stop
         stop-color="#5418C3"
         id="stop96" />
      <stop
         offset="1"
         stop-color="#0BEEFF"
         id="stop98" />
    </linearGradient>
    <linearGradient
       id="paint13_linear_13_117"
       x1="565.04303"
       y1="511.86401"
       x2="987.28802"
       y2="511.86401"
       gradientUnits="userSpaceOnUse">
      <stop
         stop-color="#0BEEFF"
         id="stop101" />
      <stop
         offset="1"
         stop-color="#5418C3"
         id="stop103" />
    </linearGradient>
    <linearGradient
       id="paint14_linear_13_117"
       x1="561.46301"
       y1="533.98901"
       x2="710.54102"
       y2="533.98901"
       gradientUnits="userSpaceOnUse">
      <stop
         stop-color="#5418C3"
         id="stop106" />
      <stop
         offset="1"
         stop-color="#0BEEFF"
         id="stop108" />
    </linearGradient>
    <linearGradient
       id="paint15_linear_13_117"
       x1="253.355"
       y1="937.83197"
       x2="523.729"
       y2="937.83197"
       gradientUnits="userSpaceOnUse">
      <stop
         stop-color="#5418C3"
         id="stop111" />
      <stop
         offset="0.11"
         stop-color="#521DC5"
         id="stop113" />
      <stop
         offset="0.25"
         stop-color="#4D2DC9"
         id="stop115" />
      <stop
         offset="0.4"
         stop-color="#4446D0"
         id="stop117" />
      <stop
         offset="0.56"
         stop-color="#386ADA"
         id="stop119" />
      <stop
         offset="0.73"
         stop-color="#2898E7"
         id="stop121" />
      <stop
         offset="0.91"
         stop-color="#16CFF6"
         id="stop123" />
      <stop
         offset="1"
         stop-color="#0BEEFF"
         id="stop125" />
    </linearGradient>
    <clipPath
       id="clip0_13_117">
      <rect
         width="1024"
         height="1024"
         fill="white"
         id="rect128"
         x="0"
         y="0" />
    </clipPath>
  </defs>
</svg>
